<svg xmlns="http://www.w3.org/2000/svg" width="65.092" height="64.731"><g data-name="right-drawn-arrow"><path data-name="Forma 1" d="M62.941 37.075a83.864 83.864 0 00-7.152-5.313.615.615 0 00-.868.338 18.346 18.346 0 00-.835 5.204l-.061.035c-7.16 4.866-18.057 2.69-25.882 1.024-9.01-1.879-18.142-5.236-24.76-11.753a28.431 28.431 0 01-2.008-2.91.425.425 0 00-.73.422l.317.549a.5.5 0 00-.151.738c.449.637 1.021 1.204 1.53 1.803 10.04 16.258 35.785 22.64 52.563 14.34.012 1.295.123 2.614.073 3.946-.06.604.677.748 1.07.439 2.818-2.196 4.73-5.253 6.914-7.98a.58.58 0 00-.02-.882zm-6.801 7.183c-.09-1.006-.304-1.941-.336-2.98a.52.52 0 00-.595-.465.447.447 0 00-.518-.19c-16.055 6.008-33.688 2.92-45.89-8.024 5.948 3.648 13.038 5.74 19.644 7.134a71.02 71.02 0 0014.604 1.662c3.83-.018 8.328-.575 11.038-3.524.098.594.974.414 1.008-.094.197-1.5.43-2.934.759-4.346 1.95 1.397 3.963 2.76 5.764 4.324a63.548 63.548 0 01-5.478 6.503z"/></g><path data-name="Color Overlay" d="M54.977 45.499c.049-1.33-.06-2.651-.072-3.946-16.778 8.3-42.521 1.92-52.564-14.341-.51-.6-1.081-1.167-1.531-1.8a.505.505 0 01.148-.737l-.319-.549a.425.425 0 01.737-.425 28.056 28.056 0 002.007 2.911c6.621 6.515 15.75 9.874 24.761 11.753 7.825 1.667 18.722 3.841 25.881-1.023l.061-.036a18.306 18.306 0 01.836-5.2c.078-.29.568-.571.866-.337a83.592 83.592 0 017.153 5.313.58.58 0 01.021.883c-2.184 2.727-4.1 5.784-6.914 7.979a.776.776 0 01-.476.158.539.539 0 01-.595-.603zm.83-4.224c.029 1.042.242 1.976.333 2.982a63.5 63.5 0 005.48-6.5c-1.8-1.565-3.814-2.926-5.765-4.324-.329 1.412-.561 2.848-.759 4.346-.034.506-.911.688-1.009.094-2.709 2.948-7.206 3.509-11.037 3.523a71.111 71.111 0 01-14.6-1.661c-6.607-1.4-13.7-3.489-19.644-7.136 12.2 10.943 29.834 14.031 45.89 8.017a.447.447 0 01.517.189.412.412 0 01.083-.008.528.528 0 01.512.478z" fill="#81b3ae"/></svg>